{"title":"Cirque Du Soleil Saltimbanco 1997 DVDRip x264","uid":6783348,"size":652120607,"categoryP":"video","categoryS":"movies","magnet":"?xt=urn:btih:94da7416fe0d0a4b9336ee2ae00471e588abba01&amp;dn=Cirque+Du+Soleil+Saltimbanco+1997+DVDRip+x264&amp;tr=udp%3A%2F%2Ftracker.openbittorrent.com%3A80&amp;tr=udp%3A%2F%2Fopen.demonii.com%3A1337&amp;tr=udp%3A%2F%2Ftracker.coppersurfer.tk%3A6969&amp;tr=udp%3A%2F%2Fexodus.desync.com%3A6969","seeders":1,"leechers":0,"uploader":"yassergre","files":-1,"time":1319994806,"description":"General\nFormat                                   : MPEG-4\nFile size                                : 622 MiB\nDuration                                 : 1h 18mn\nOverall bit rate mode                    : Variable\nOverall bit rate                         : 1 108 Kbps\nMovie name                               : Cirque.Du.Soleil.Saltimbanco\nGenre                                    : Cirque\nRecorded date                            : 1997\n\nVideo\nID                                       : 1\nFormat                                   : AVC\nDuration                                 : 1h 18mn\nBit rate                                 : 1 000 Kbps\nMaximum bit rate                         : 3 539 Kbps\nWidth                                    : 480 pixels\nHeight                                   : 400 pixels\nDisplay aspect ratio                     : 1.300\nFrame rate mode                          : Constant\nFrame rate                               : 23.976 fps\nStream size                              : 561 MiB (90%)\nWriting library                          : x264 core 116 r2042 178455c\n\nAudio\nID                                       : 2\nFormat                                   : AAC\nDuration                                 : 1h 18mn\nBit rate mode                            : Variable\nBit rate                                 : 104 Kbps\nMaximum bit rate                         : 133 Kbps\nChannel(s)                               : 2 channels\nSampling rate                            : 48.0 KHz\nStream size                              : 58.5 MiB (9%)\nTitle                                    : LC-AAC Stereo\n","torrent":{"xt":"urn:btih:94da7416fe0d0a4b9336ee2ae00471e588abba01","amp;dn":"Cirque+Du+Soleil+Saltimbanco+1997+DVDRip+x264","amp;tr":["udp%3A%2F%2Ftracker.openbittorrent.com%3A80","udp%3A%2F%2Fopen.demonii.com%3A1337","udp%3A%2F%2Ftracker.coppersurfer.tk%3A6969","udp%3A%2F%2Fexodus.desync.com%3A6969"],"infoHash":"94da7416fe0d0a4b9336ee2ae00471e588abba01","infoHashBuffer":{"type":"Buffer","data":[148,218,116,22,254,13,10,75,147,54,238,42,224,4,113,229,136,171,186,1]},"announce":[],"urlList":[]}}